<?xml version="1.0" encoding="utf-8"?>
<!-- Generator: Adobe Illustrator 25.0.0, SVG Export Plug-In . SVG Version: 6.00 Build 0)  -->
<svg version="1.1" id="Layer_1" xmlns="http://www.w3.org/2000/svg" xmlns:xlink="http://www.w3.org/1999/xlink" x="0px" y="0px"
	 viewBox="0 0 288 50" style="enable-background:new 0 0 288 50;" xml:space="preserve">
<style type="text/css">
	.st0{fill:#D22F27;}
	.st1{fill:#9DA6AB;}
</style>
<g>
	<g>
		<path class="st0" d="M12.5,8.28c0,0,23.57-11.46,44.97-2.12c20.08,8.77,31.82,36.34,12.59,62.79
			C63.39,78.12,52.1,84.22,52.1,84.22s12.59-23.97,4.31-43.84c-6.49-15.59-18.45-23.05-25.38-26.45C23.52,10.26,12.5,8.28,12.5,8.28
			z"/>
		<path class="st1" d="M0.34,20.58c0,0,6.93-3.11,14-4.53s14.52-1.13,14.52-1.13s15.74,6.03,23.81,21.64
			c7.89,15.27,4.1,28.8,1.84,36.49c-1.79,6.08-5.85,11.93-3.58,12.77c2.26,0.85,3.58-1.04,3.58-1.04s-3.02,3.44-6.98,6.41
			c-3.96,2.97-7.87,5.47-7.87,5.47s12.02-22.16,5.52-41.58c-5.7-17-18.67-24.89-24.89-28.28C11.84,22.2,0.34,20.58,0.34,20.58z"/>
	</g>
	<g>
		<polygon class="st0" points="175.01,74.34 174.45,74.34 157.89,74.34 157.32,74.34 157.32,73.77 157.32,7.53 157.32,6.97 
			157.89,6.97 174.45,6.97 175.01,6.97 175.01,7.53 175.01,73.77 175.01,74.34 		"/>
		<path class="st0" d="M114.48,74.35H93.74h-0.57v-0.57V7.51V6.95h0.57h20.56c4.66,0,9.09,0.3,13.17,0.9
			c4.13,0.6,8.05,2.08,11.66,4.4c4.42,2.83,7.96,6.69,10.52,11.49c2.55,4.8,3.85,10.51,3.85,16.98c0,6.24-1.39,11.91-4.12,16.85
			c-2.73,4.94-6.24,8.79-10.43,11.44c-3.49,2.25-7.34,3.73-11.45,4.37C123.45,74.02,119.07,74.35,114.48,74.35L114.48,74.35z
			 M110.96,20.45V60.8c3.6,0,6.68-0.07,9.17-0.2c2.46-0.13,4.83-0.9,7.05-2.3c2.62-1.65,4.65-3.97,6.02-6.88
			c1.38-2.94,2.08-6.58,2.08-10.84c0-4.25-0.74-7.94-2.19-10.95c-1.44-2.98-3.69-5.34-6.69-7.03c-2.17-1.2-4.47-1.86-6.85-1.98
			C117.13,20.51,114.24,20.45,110.96,20.45L110.96,20.45z"/>
		<path class="st0" d="M198.18,74.35h-0.57h-16.65h-0.57v-0.57V7.51V6.94h0.57h25.73c3.85,0,7.23,0.36,10.04,1.06
			c2.83,0.71,5.43,1.85,7.72,3.4c2.56,1.71,4.57,4.02,5.98,6.87c1.4,2.84,2.1,6.26,2.1,10.15c0,3.13-0.5,6.16-1.5,9
			c-1,2.85-2.47,5.28-4.36,7.2c-1.15,1.18-2.42,2.28-3.79,3.27c-1.37,1-2.92,1.86-4.59,2.56c-1.66,0.7-3.49,1.25-5.43,1.64
			c-1.94,0.39-4.14,0.59-6.54,0.59h-8.16v21.11V74.35L198.18,74.35z M198.18,39.17h0.59c1.58,0,3.07-0.01,4.44-0.04
			c1.36-0.03,2.56-0.13,3.57-0.3c0.84-0.14,1.75-0.42,2.69-0.83c0.92-0.4,1.64-0.85,2.12-1.33c1.06-1.03,1.79-2.11,2.16-3.21
			c0.38-1.12,0.57-2.68,0.57-4.63c0-1.75-0.42-3.27-1.24-4.52c-0.82-1.24-1.81-2.11-2.95-2.57c-1.52-0.66-2.98-1.04-4.35-1.14
			c-1.43-0.1-3.39-0.15-5.81-0.15h-1.79V39.17L198.18,39.17z"/>
		<path class="st0" d="M258.02,75.55c-4.92,0-8.92-0.46-12.95-1.49c-3.94-1.01-8.95-2.95-12.04-4.32l-0.5-0.22l0.21-0.51l5.03-12.37
			l0.24-0.6l0.56,0.31c2.96,1.67,5.37,2.69,8.08,3.72c3.92,1.48,7.78,2.23,11.46,2.23c0.95,0,2.76-0.11,4.25-0.31
			c1.49-0.2,2.7-0.51,3.6-0.93c1.09-0.48,2.01-1.14,2.75-1.98c0.71-0.81,1.06-1.85,1.06-3.21c0-1.49-0.57-2.67-1.75-3.61
			c-1.24-0.98-2.74-1.71-4.46-2.16c-0.6-0.16-1.17-0.31-1.74-0.47c-1.56-0.43-3.03-0.83-4.9-1.22c-2.58-0.54-5.02-1.2-7.26-1.98
			c-5.22-1.84-9.03-4.36-11.31-7.5c-2.29-3.14-3.45-7.12-3.45-11.82c0-6.36,2.73-11.58,8.11-15.52c5.48-4.01,11.65-5.87,19.44-5.87
			c3.8,0,7.18,0.36,11.32,1.21c4.11,0.84,8.31,2.58,11.11,3.82l0.5,0.22l-0.2,0.51l-4.59,11.41l-0.24,0.59l-0.56-0.31
			c-1.96-1.08-3.55-1.73-6.54-2.64c-3.9-1.2-6.5-1.62-9.95-1.62c-1.43,0-2.43,0.06-3.57,0.23c-1.24,0.18-1.93,0.5-3.19,1.08
			c-0.83,0.38-1.67,1.09-2.49,2.11c-0.68,0.84-1.01,1.75-1.01,2.78c0,1.53,0.52,2.7,1.6,3.59c1.33,1.1,3.23,1.89,6.17,2.58
			c2.22,0.5,4.37,0.99,6.43,1.47c2.07,0.48,4.31,1.14,6.67,1.98c4.68,1.69,8.22,4,10.51,6.88c2.31,2.9,3.48,6.75,3.48,11.46
			c0,6.74-2.69,12.24-7.99,16.34C274.74,73.43,267.16,75.55,258.02,75.55L258.02,75.55z"/>
	</g>
</g>
</svg>
